<?xml version="1.0" encoding="UTF-8"?>
<svg xmlns="http://www.w3.org/2000/svg" id="Icons" viewBox="0 0 60 60" width="512" height="512"><path d="M3,48H30.3A15,15,0,1,0,48,30.3V8.2h-.016a1.778,1.778,0,0,0-.376-1.121L42.532.678A1.78,1.78,0,0,0,41.13,0H6.87a1.778,1.778,0,0,0-1.4.679L.392,7.079A1.778,1.778,0,0,0,.016,8.2H0V45A3,3,0,0,0,3,48Zm55-3A13,13,0,1,1,45,32,13.015,13.015,0,0,1,58,45ZM45,30A15.017,15.017,0,0,0,30,45c0,.338.029.668.051,1H3a1,1,0,0,1-1-1V10H16V21.354a1.369,1.369,0,0,0,2.19,1.1L20.5,20.717l2.685,2.013a1.364,1.364,0,0,0,1.64,0L27.5,20.718l2.306,1.731A1.369,1.369,0,0,0,32,21.354V10H46V30.051C45.668,30.029,45.338,30,45,30ZM26.681,18.834l-2.676,2.009L21.32,18.829a1.365,1.365,0,0,0-1.638,0L18,20.093V10H30V20.092l-1.674-1.257A1.379,1.379,0,0,0,26.681,18.834ZM18.443,8l2.25-6h6.614l2.25,6ZM45.787,8H31.693l-2.25-6H41.028ZM6.972,2H18.557l-2.25,6H2.213Z"/><path d="M17,34H7a2,2,0,0,0-2,2v5a2,2,0,0,0,2,2H17a2,2,0,0,0,2-2V36A2,2,0,0,0,17,34ZM7,41V36H17l0,5Z"/><path d="M39.707,38.293a1,1,0,0,0-1.414,1.414L43.586,45l-5.293,5.293a1,1,0,1,0,1.414,1.414L45,46.414l5.293,5.293a1,1,0,0,0,1.414-1.414L46.414,45l5.293-5.293a1,1,0,0,0-1.414-1.414L45,43.586Z"/></svg>
