<svg id="Layer_1" height="512" viewBox="0 0 100 100" width="512" xmlns="http://www.w3.org/2000/svg"><g><path d="m74.5 92.3h-49c-3.9 0-7-3.1-7-7v-70.5c0-3.9 3.1-7 7-7h49c3.9 0 7 3.1 7 7v70.5c0 3.8-3.1 7-7 7zm-49-80.5c-1.7 0-3 1.3-3 3v70.5c0 1.7 1.3 3 3 3h49c1.7 0 3-1.3 3-3v-70.5c0-1.7-1.3-3-3-3z"/></g><g><path d="m66.8 19.8h-33.5c-1.1 0-2-.9-2-2s.9-2 2-2h33.5c1.1 0 2 .9 2 2s-.9 2-2 2z"/></g><g><path d="m66.8 30.5h-33.5c-1.1 0-2-.9-2-2s.9-2 2-2h33.5c1.1 0 2 .9 2 2s-.9 2-2 2z"/></g><g><path d="m66.8 41.3h-33.5c-1.1 0-2-.9-2-2s.9-2 2-2h33.5c1.1 0 2 .9 2 2s-.9 2-2 2z"/></g><g><path d="m66.8 52h-33.5c-1.1 0-2-.9-2-2s.9-2 2-2h33.5c1.1 0 2 .9 2 2s-.9 2-2 2z"/></g><g><path d="m66.8 62.8h-33.5c-1.1 0-2-.9-2-2s.9-2 2-2h33.5c1.1 0 2 .9 2 2s-.9 2-2 2z"/></g><g><path d="m66.8 73.5h-33.5c-1.1 0-2-.9-2-2s.9-2 2-2h33.5c1.1 0 2 .9 2 2s-.9 2-2 2z"/></g><g><path d="m66.8 84.3h-33.5c-1.1 0-2-.9-2-2s.9-2 2-2h33.5c1.1 0 2 .9 2 2s-.9 2-2 2z"/></g></svg>