<svg fill="none" height="512" viewBox="0 0 24 24" width="512" xmlns="http://www.w3.org/2000/svg"><g clip-rule="evenodd" fill="rgb(0,0,0)" fill-rule="evenodd"><path d="m1.5 4c0-1.38071 1.11929-2.5 2.5-2.5h16c1.3807 0 2.5 1.11929 2.5 2.5v7h-1v-7c0-.82843-.6716-1.5-1.5-1.5h-16c-.82843 0-1.5.67157-1.5 1.5v16c0 .8284.67157 1.5 1.5 1.5h7v1h-7c-1.38071 0-2.5-1.1193-2.5-2.5z"/><path d="m8.5 2c0-.27614.22386-.5.5-.5h6c.2761 0 .5.22386.5.5v7c0 .16072-.0773.31165-.2076.40562-.1304.09398-.298.11955-.4505.06872l-2.8419-.94729-2.84189.94729c-.15247.05083-.32008.02526-.45047-.06872-.13038-.09397-.20764-.2449-.20764-.40562zm1 .5v5.80629l2.3419-.78063c.1026-.03421.2136-.03421.3162 0l2.3419.78063v-5.80629z"/><path d="m17 12.5c-2.4853 0-4.5 2.0147-4.5 4.5s2.0147 4.5 4.5 4.5 4.5-2.0147 4.5-4.5-2.0147-4.5-4.5-4.5zm-5.5 4.5c0-3.0376 2.4624-5.5 5.5-5.5s5.5 2.4624 5.5 5.5-2.4624 5.5-5.5 5.5-5.5-2.4624-5.5-5.5z"/><path d="m19.3841 15.8201-2.5 3c-.0899.1079-.2211.173-.3614.1794s-.2769-.0466-.3762-.1459l-1.5-1.5.7071-.7072 1.1128 1.1129 2.1495-2.5794z"/></g></svg>